<svg width="0" height="0" class="hidden">
  <symbol version="1.1" xmlns="http://www.w3.org/2000/svg" viewBox="0 0 32 32" id="phone-solid">
    <path d="M10.306 1.538c-0.481-1.163-1.75-1.781-2.963-1.45l-5.5 1.5c-1.087 0.3-1.844 1.287-1.844 2.412 0 15.462 12.537 28 28 28 1.125 0 2.113-0.756 2.413-1.844l1.5-5.5c0.331-1.212-0.288-2.481-1.45-2.962l-6-2.5c-1.019-0.425-2.2-0.131-2.894 0.725l-2.525 3.081c-4.4-2.081-7.963-5.644-10.044-10.044l3.081-2.519c0.856-0.7 1.15-1.875 0.725-2.894l-2.5-6z"></path>
  </symbol>
  <symbol version="1.1" xmlns="http://www.w3.org/2000/svg" viewBox="0 0 32 32" id="at-solid">
    <path d="M16 4c-6.625 0-12 5.375-12 12s5.375 12 12 12c1.106 0 2 0.894 2 2s-0.894 2-2 2c-8.838 0-16-7.163-16-16s7.162-16 16-16 16 7.162 16 16v2c0 3.313-2.688 6-6 6-1.831 0-3.475-0.825-4.575-2.119-1.425 1.313-3.331 2.119-5.425 2.119-4.419 0-8-3.581-8-8s3.581-8 8-8c1.744 0 3.356 0.556 4.669 1.506 0.356-0.313 0.819-0.506 1.331-0.506 1.106 0 2 0.894 2 2v7c0 1.106 0.894 2 2 2s2-0.894 2-2v-2c0-6.625-5.375-12-12-12zM20 16c0-2.209-1.791-4-4-4s-4 1.791-4 4v0c0 2.209 1.791 4 4 4s4-1.791 4-4v0z"></path>
  </symbol>
  <symbol version="1.1" xmlns="http://www.w3.org/2000/svg" viewBox="0 0 31 32" id="github-brands">
    <path d="M10.369 24.837c0 0.125-0.144 0.225-0.325 0.225-0.206 0.019-0.35-0.081-0.35-0.225 0-0.125 0.144-0.225 0.325-0.225 0.188-0.019 0.35 0.081 0.35 0.225zM8.425 24.556c-0.044 0.125 0.081 0.269 0.269 0.306 0.162 0.063 0.35 0 0.387-0.125s-0.081-0.269-0.269-0.325c-0.162-0.044-0.344 0.019-0.387 0.144zM11.188 24.45c-0.181 0.044-0.306 0.163-0.287 0.306 0.019 0.125 0.181 0.206 0.369 0.163 0.181-0.044 0.306-0.163 0.287-0.288-0.019-0.119-0.188-0.2-0.369-0.181zM15.3 0.5c-8.669 0-15.3 6.581-15.3 15.25 0 6.931 4.362 12.863 10.594 14.95 0.8 0.144 1.081-0.35 1.081-0.756 0-0.387-0.019-2.525-0.019-3.837 0 0-4.375 0.938-5.294-1.863 0 0-0.713-1.819-1.737-2.288 0 0-1.431-0.981 0.1-0.962 0 0 1.556 0.125 2.412 1.613 1.369 2.413 3.662 1.719 4.556 1.306 0.144-1 0.55-1.694 1-2.106-3.494-0.387-7.019-0.894-7.019-6.906 0-1.719 0.475-2.581 1.475-3.681-0.162-0.406-0.694-2.081 0.162-4.244 1.306-0.406 4.313 1.688 4.313 1.688 1.25-0.35 2.594-0.531 3.925-0.531s2.675 0.181 3.925 0.531c0 0 3.006-2.1 4.313-1.688 0.856 2.169 0.325 3.838 0.163 4.244 1 1.106 1.613 1.969 1.613 3.681 0 6.031-3.681 6.512-7.175 6.906 0.575 0.494 1.063 1.431 1.063 2.9 0 2.106-0.019 4.712-0.019 5.225 0 0.406 0.288 0.9 1.081 0.756 6.25-2.075 10.488-8.006 10.488-14.938 0-8.669-7.031-15.25-15.7-15.25zM6.075 22.056c-0.081 0.063-0.063 0.206 0.044 0.325 0.1 0.1 0.244 0.144 0.325 0.063 0.081-0.063 0.063-0.206-0.044-0.325-0.1-0.1-0.244-0.144-0.325-0.063zM5.4 21.55c-0.044 0.081 0.019 0.181 0.144 0.244 0.1 0.063 0.225 0.044 0.269-0.044 0.044-0.081-0.019-0.181-0.144-0.244-0.125-0.038-0.225-0.019-0.269 0.044zM7.425 23.775c-0.1 0.081-0.063 0.269 0.081 0.387 0.144 0.144 0.325 0.163 0.406 0.063 0.081-0.081 0.044-0.269-0.081-0.387-0.138-0.144-0.325-0.163-0.406-0.063zM6.713 22.856c-0.1 0.063-0.1 0.225 0 0.369s0.269 0.206 0.35 0.144c0.1-0.081 0.1-0.244 0-0.387-0.088-0.144-0.25-0.206-0.35-0.125z"></path>
  </symbol>
  <symbol version="1.1" xmlns="http://www.w3.org/2000/svg" viewBox="0 0 28 32" id="linkedin-brands">
    <path d="M26 2h-24.006c-1.1 0-1.994 0.906-1.994 2.019v23.962c0 1.113 0.894 2.019 1.994 2.019h24.006c1.1 0 2-0.906 2-2.019v-23.962c0-1.112-0.9-2.019-2-2.019zM8.463 26h-4.15v-13.363h4.156v13.363zM6.388 10.813c-1.331 0-2.406-1.081-2.406-2.406s1.075-2.406 2.406-2.406c1.325 0 2.406 1.081 2.406 2.406 0 1.331-1.075 2.406-2.406 2.406zM24.019 26h-4.15v-6.5c0-1.55-0.031-3.544-2.156-3.544-2.162 0-2.494 1.688-2.494 3.431v6.613h-4.15v-13.363h3.981v1.825h0.056c0.556-1.050 1.912-2.156 3.931-2.156 4.2 0 4.981 2.769 4.981 6.369v7.325z"></path>
  </symbol>
  <symbol version="1.1" xmlns="http://www.w3.org/2000/svg" viewBox="0 0 24 32" id="location-dot-solid">
    <path d="M13.481 31.2c3.206-4.012 10.519-13.738 10.519-19.2 0-6.625-5.375-12-12-12s-12 5.375-12 12c0 5.462 7.313 15.188 10.519 19.2 0.769 0.956 2.194 0.956 2.963 0zM12 8c2.209 0 4 1.791 4 4s-1.791 4-4 4v0c-2.209 0-4-1.791-4-4s1.791-4 4-4v0z"></path>
  </symbol>
</svg>